<?xml version="1.0" encoding="us-ascii" standalone="no"?><svg xmlns="http://www.w3.org/2000/svg" xmlns:xlink="http://www.w3.org/1999/xlink" contentStyleType="text/css" height="235px" preserveAspectRatio="none" style="width:2478px;height:235px;background:#FFFFFF;" version="1.1" viewBox="0 0 2478 235" width="2478px" zoomAndPan="magnify"><defs/><g><!--class AbstractFactory--><g id="elem_AbstractFactory"><rect codeLine="1" fill="#F1F1F1" height="80.5938" id="AbstractFactory" rx="2.5" ry="2.5" style="stroke:#181818;stroke-width:0.5;" width="256" x="618.5" y="7"/><ellipse cx="686.25" cy="23" fill="#A9DCDF" rx="11" ry="11" style="stroke:#181818;stroke-width:1.0;"/><path d="M688.3281,24.8125 L688.7188,25.7969 L688.3281,25.7969 C687.875,25.7969 687.7656,25.8125 687.6094,25.9219 C687.3594,26.0781 687.2031,26.3594 687.2031,26.6563 C687.2031,26.9219 687.3438,27.1719 687.5625,27.3281 C687.7031,27.4531 687.9063,27.5 688.3281,27.5 L690.6875,27.5 C691.0469,27.5 691.2656,27.4688 691.4063,27.375 C691.6563,27.2344 691.8125,26.9375 691.8125,26.6563 C691.8125,26.375 691.6719,26.125 691.4531,25.9688 C691.2813,25.8281 691.125,25.7969 690.6563,25.7969 L687.2656,17.5938 L683.5938,17.5938 C683.1406,17.5938 683.0156,17.6094 682.8594,17.7031 C682.6094,17.875 682.4531,18.1563 682.4531,18.4375 C682.4531,18.7188 682.5938,18.9688 682.8125,19.1406 C682.9844,19.25 683.1563,19.2813 683.5938,19.2813 L684.6719,19.2813 L682.0313,25.7969 C681.6094,25.7969 681.4531,25.8125 681.2969,25.9219 C681.0469,26.0781 680.8906,26.3594 680.8906,26.6563 C680.8906,27.2188 681.2656,27.5 682.0156,27.5 L684.2813,27.5 C684.6406,27.5 684.8594,27.4688 684.9844,27.375 C685.25,27.2344 685.3906,26.9375 685.3906,26.6563 C685.3906,26.375 685.2656,26.125 685.0469,25.9531 C684.875,25.8281 684.7344,25.7969 684.2813,25.7969 L683.8906,25.7969 L684.2813,24.8125 L688.3281,24.8125 Z M687.625,23.1094 L684.9531,23.1094 L686.2969,19.8438 L687.625,23.1094 Z " fill="#000000"/><text fill="#000000" font-family="sans-serif" font-size="14" font-style="italic" lengthAdjust="spacing" textLength="112" x="706.75" y="27.8467">AbstractFactory</text><line style="stroke:#181818;stroke-width:0.5;" x1="619.5" x2="873.5" y1="39" y2="39"/><line style="stroke:#181818;stroke-width:0.5;" x1="619.5" x2="873.5" y1="47" y2="47"/><ellipse cx="629.5" cy="60.6484" fill="#84BE84" rx="3" ry="3" style="stroke:#038048;stroke-width:1.0;"/><text fill="#000000" font-family="sans-serif" font-size="14" font-style="italic" lengthAdjust="spacing" textLength="230" x="638.5" y="63.9951">crear_analisis(): AbstractAnalisis</text><ellipse cx="629.5" cy="76.9453" fill="#84BE84" rx="3" ry="3" style="stroke:#038048;stroke-width:1.0;"/><text fill="#000000" font-family="sans-serif" font-size="14" font-style="italic" lengthAdjust="spacing" textLength="225" x="638.5" y="80.292">crear_grafico(): AbstractGrafico</text></g><!--class HistModeFactory--><g id="elem_HistModeFactory"><rect codeLine="6" fill="#F1F1F1" height="80.5938" id="HistModeFactory" rx="2.5" ry="2.5" style="stroke:#181818;stroke-width:0.5;" width="221" x="7" y="148"/><ellipse cx="52.75" cy="164" fill="#ADD1B2" rx="11" ry="11" style="stroke:#181818;stroke-width:1.0;"/><path d="M55.0938,159.6719 C54.1563,159.2344 53.5625,159.0938 52.6875,159.0938 C50.0625,159.0938 48.0625,161.1719 48.0625,163.8906 L48.0625,165.0156 C48.0625,167.5938 50.1719,169.4844 53.0625,169.4844 C54.2813,169.4844 55.4375,169.1875 56.1875,168.6406 C56.7656,168.2344 57.0938,167.7813 57.0938,167.3906 C57.0938,166.9375 56.7031,166.5469 56.2344,166.5469 C56.0156,166.5469 55.8125,166.625 55.625,166.8125 C55.1719,167.2969 55.1719,167.2969 54.9844,167.3906 C54.5625,167.6563 53.875,167.7813 53.1094,167.7813 C51.0625,167.7813 49.7656,166.6875 49.7656,164.9844 L49.7656,163.8906 C49.7656,162.1094 51.0156,160.7969 52.75,160.7969 C53.3281,160.7969 53.9375,160.9531 54.4063,161.2031 C54.8906,161.4844 55.0625,161.7031 55.1563,162.1094 C55.2188,162.5156 55.25,162.6406 55.3906,162.7656 C55.5313,162.9063 55.7656,163.0156 55.9844,163.0156 C56.25,163.0156 56.5156,162.875 56.6875,162.6563 C56.7969,162.5 56.8281,162.3125 56.8281,161.8906 L56.8281,160.4688 C56.8281,160.0313 56.8125,159.9063 56.7188,159.75 C56.5625,159.4844 56.2813,159.3438 55.9844,159.3438 C55.6875,159.3438 55.4844,159.4375 55.2656,159.75 L55.0938,159.6719 Z " fill="#000000"/><text fill="#000000" font-family="sans-serif" font-size="14" lengthAdjust="spacing" textLength="121" x="73.25" y="168.8467">HistModeFactory</text><line style="stroke:#181818;stroke-width:0.5;" x1="8" x2="227" y1="180" y2="180"/><line style="stroke:#181818;stroke-width:0.5;" x1="8" x2="227" y1="188" y2="188"/><ellipse cx="18" cy="201.6484" fill="#84BE84" rx="3" ry="3" style="stroke:#038048;stroke-width:1.0;"/><text fill="#000000" font-family="sans-serif" font-size="14" lengthAdjust="spacing" textLength="152" x="27" y="204.9951">crear_analisis(): Moda</text><ellipse cx="18" cy="217.9453" fill="#84BE84" rx="3" ry="3" style="stroke:#038048;stroke-width:1.0;"/><text fill="#000000" font-family="sans-serif" font-size="14" lengthAdjust="spacing" textLength="195" x="27" y="221.292">crear_grafico(): Histograma</text></g><!--class HistMeanFactory--><g id="elem_HistMeanFactory"><rect codeLine="11" fill="#F1F1F1" height="80.5938" id="HistMeanFactory" rx="2.5" ry="2.5" style="stroke:#181818;stroke-width:0.5;" width="221" x="263" y="148"/><ellipse cx="309.25" cy="164" fill="#ADD1B2" rx="11" ry="11" style="stroke:#181818;stroke-width:1.0;"/><path d="M311.5938,159.6719 C310.6563,159.2344 310.0625,159.0938 309.1875,159.0938 C306.5625,159.0938 304.5625,161.1719 304.5625,163.8906 L304.5625,165.0156 C304.5625,167.5938 306.6719,169.4844 309.5625,169.4844 C310.7813,169.4844 311.9375,169.1875 312.6875,168.6406 C313.2656,168.2344 313.5938,167.7813 313.5938,167.3906 C313.5938,166.9375 313.2031,166.5469 312.7344,166.5469 C312.5156,166.5469 312.3125,166.625 312.125,166.8125 C311.6719,167.2969 311.6719,167.2969 311.4844,167.3906 C311.0625,167.6563 310.375,167.7813 309.6094,167.7813 C307.5625,167.7813 306.2656,166.6875 306.2656,164.9844 L306.2656,163.8906 C306.2656,162.1094 307.5156,160.7969 309.25,160.7969 C309.8281,160.7969 310.4375,160.9531 310.9063,161.2031 C311.3906,161.4844 311.5625,161.7031 311.6563,162.1094 C311.7188,162.5156 311.75,162.6406 311.8906,162.7656 C312.0313,162.9063 312.2656,163.0156 312.4844,163.0156 C312.75,163.0156 313.0156,162.875 313.1875,162.6563 C313.2969,162.5 313.3281,162.3125 313.3281,161.8906 L313.3281,160.4688 C313.3281,160.0313 313.3125,159.9063 313.2188,159.75 C313.0625,159.4844 312.7813,159.3438 312.4844,159.3438 C312.1875,159.3438 311.9844,159.4375 311.7656,159.75 L311.5938,159.6719 Z " fill="#000000"/><text fill="#000000" font-family="sans-serif" font-size="14" lengthAdjust="spacing" textLength="120" x="329.75" y="168.8467">HistMeanFactory</text><line style="stroke:#181818;stroke-width:0.5;" x1="264" x2="483" y1="180" y2="180"/><line style="stroke:#181818;stroke-width:0.5;" x1="264" x2="483" y1="188" y2="188"/><ellipse cx="274" cy="201.6484" fill="#84BE84" rx="3" ry="3" style="stroke:#038048;stroke-width:1.0;"/><text fill="#000000" font-family="sans-serif" font-size="14" lengthAdjust="spacing" textLength="156" x="283" y="204.9951">crear_analisis(): Media</text><ellipse cx="274" cy="217.9453" fill="#84BE84" rx="3" ry="3" style="stroke:#038048;stroke-width:1.0;"/><text fill="#000000" font-family="sans-serif" font-size="14" lengthAdjust="spacing" textLength="195" x="283" y="221.292">crear_grafico(): Histograma</text></g><!--class HistMedianFactory--><g id="elem_HistMedianFactory"><rect codeLine="16" fill="#F1F1F1" height="80.5938" id="HistMedianFactory" rx="2.5" ry="2.5" style="stroke:#181818;stroke-width:0.5;" width="221" x="519" y="148"/><ellipse cx="559.2" cy="164" fill="#ADD1B2" rx="11" ry="11" style="stroke:#181818;stroke-width:1.0;"/><path d="M561.5438,159.6719 C560.6063,159.2344 560.0125,159.0938 559.1375,159.0938 C556.5125,159.0938 554.5125,161.1719 554.5125,163.8906 L554.5125,165.0156 C554.5125,167.5938 556.6219,169.4844 559.5125,169.4844 C560.7313,169.4844 561.8875,169.1875 562.6375,168.6406 C563.2156,168.2344 563.5438,167.7813 563.5438,167.3906 C563.5438,166.9375 563.1531,166.5469 562.6844,166.5469 C562.4656,166.5469 562.2625,166.625 562.075,166.8125 C561.6219,167.2969 561.6219,167.2969 561.4344,167.3906 C561.0125,167.6563 560.325,167.7813 559.5594,167.7813 C557.5125,167.7813 556.2156,166.6875 556.2156,164.9844 L556.2156,163.8906 C556.2156,162.1094 557.4656,160.7969 559.2,160.7969 C559.7781,160.7969 560.3875,160.9531 560.8563,161.2031 C561.3406,161.4844 561.5125,161.7031 561.6063,162.1094 C561.6688,162.5156 561.7,162.6406 561.8406,162.7656 C561.9813,162.9063 562.2156,163.0156 562.4344,163.0156 C562.7,163.0156 562.9656,162.875 563.1375,162.6563 C563.2469,162.5 563.2781,162.3125 563.2781,161.8906 L563.2781,160.4688 C563.2781,160.0313 563.2625,159.9063 563.1688,159.75 C563.0125,159.4844 562.7313,159.3438 562.4344,159.3438 C562.1375,159.3438 561.9344,159.4375 561.7156,159.75 L561.5438,159.6719 Z " fill="#000000"/><text fill="#000000" font-family="sans-serif" font-size="14" lengthAdjust="spacing" textLength="133" x="578.8" y="168.8467">HistMedianFactory</text><line style="stroke:#181818;stroke-width:0.5;" x1="520" x2="739" y1="180" y2="180"/><line style="stroke:#181818;stroke-width:0.5;" x1="520" x2="739" y1="188" y2="188"/><ellipse cx="530" cy="201.6484" fill="#84BE84" rx="3" ry="3" style="stroke:#038048;stroke-width:1.0;"/><text fill="#000000" font-family="sans-serif" font-size="14" lengthAdjust="spacing" textLength="173" x="539" y="204.9951">crear_analisis(): Mediana</text><ellipse cx="530" cy="217.9453" fill="#84BE84" rx="3" ry="3" style="stroke:#038048;stroke-width:1.0;"/><text fill="#000000" font-family="sans-serif" font-size="14" lengthAdjust="spacing" textLength="195" x="539" y="221.292">crear_grafico(): Histograma</text></g><!--class BarModeFactory--><g id="elem_BarModeFactory"><rect codeLine="21" fill="#F1F1F1" height="80.5938" id="BarModeFactory" rx="2.5" ry="2.5" style="stroke:#181818;stroke-width:0.5;" width="178" x="775.5" y="148"/><ellipse cx="803.55" cy="164" fill="#ADD1B2" rx="11" ry="11" style="stroke:#181818;stroke-width:1.0;"/><path d="M805.8938,159.6719 C804.9563,159.2344 804.3625,159.0938 803.4875,159.0938 C800.8625,159.0938 798.8625,161.1719 798.8625,163.8906 L798.8625,165.0156 C798.8625,167.5938 800.9719,169.4844 803.8625,169.4844 C805.0813,169.4844 806.2375,169.1875 806.9875,168.6406 C807.5656,168.2344 807.8938,167.7813 807.8938,167.3906 C807.8938,166.9375 807.5031,166.5469 807.0344,166.5469 C806.8156,166.5469 806.6125,166.625 806.425,166.8125 C805.9719,167.2969 805.9719,167.2969 805.7844,167.3906 C805.3625,167.6563 804.675,167.7813 803.9094,167.7813 C801.8625,167.7813 800.5656,166.6875 800.5656,164.9844 L800.5656,163.8906 C800.5656,162.1094 801.8156,160.7969 803.55,160.7969 C804.1281,160.7969 804.7375,160.9531 805.2063,161.2031 C805.6906,161.4844 805.8625,161.7031 805.9563,162.1094 C806.0188,162.5156 806.05,162.6406 806.1906,162.7656 C806.3313,162.9063 806.5656,163.0156 806.7844,163.0156 C807.05,163.0156 807.3156,162.875 807.4875,162.6563 C807.5969,162.5 807.6281,162.3125 807.6281,161.8906 L807.6281,160.4688 C807.6281,160.0313 807.6125,159.9063 807.5188,159.75 C807.3625,159.4844 807.0813,159.3438 806.7844,159.3438 C806.4875,159.3438 806.2844,159.4375 806.0656,159.75 L805.8938,159.6719 Z " fill="#000000"/><text fill="#000000" font-family="sans-serif" font-size="14" lengthAdjust="spacing" textLength="117" x="820.45" y="168.8467">BarModeFactory</text><line style="stroke:#181818;stroke-width:0.5;" x1="776.5" x2="952.5" y1="180" y2="180"/><line style="stroke:#181818;stroke-width:0.5;" x1="776.5" x2="952.5" y1="188" y2="188"/><ellipse cx="786.5" cy="201.6484" fill="#84BE84" rx="3" ry="3" style="stroke:#038048;stroke-width:1.0;"/><text fill="#000000" font-family="sans-serif" font-size="14" lengthAdjust="spacing" textLength="152" x="795.5" y="204.9951">crear_analisis(): Moda</text><ellipse cx="786.5" cy="217.9453" fill="#84BE84" rx="3" ry="3" style="stroke:#038048;stroke-width:1.0;"/><text fill="#000000" font-family="sans-serif" font-size="14" lengthAdjust="spacing" textLength="151" x="795.5" y="221.292">crear_grafico(): Barra</text></g><!--class BarMeanFactory--><g id="elem_BarMeanFactory"><rect codeLine="26" fill="#F1F1F1" height="80.5938" id="BarMeanFactory" rx="2.5" ry="2.5" style="stroke:#181818;stroke-width:0.5;" width="182" x="988.5" y="148"/><ellipse cx="1018.8" cy="164" fill="#ADD1B2" rx="11" ry="11" style="stroke:#181818;stroke-width:1.0;"/><path d="M1021.1438,159.6719 C1020.2063,159.2344 1019.6125,159.0938 1018.7375,159.0938 C1016.1125,159.0938 1014.1125,161.1719 1014.1125,163.8906 L1014.1125,165.0156 C1014.1125,167.5938 1016.2219,169.4844 1019.1125,169.4844 C1020.3313,169.4844 1021.4875,169.1875 1022.2375,168.6406 C1022.8156,168.2344 1023.1438,167.7813 1023.1438,167.3906 C1023.1438,166.9375 1022.7531,166.5469 1022.2844,166.5469 C1022.0656,166.5469 1021.8625,166.625 1021.675,166.8125 C1021.2219,167.2969 1021.2219,167.2969 1021.0344,167.3906 C1020.6125,167.6563 1019.925,167.7813 1019.1594,167.7813 C1017.1125,167.7813 1015.8156,166.6875 1015.8156,164.9844 L1015.8156,163.8906 C1015.8156,162.1094 1017.0656,160.7969 1018.8,160.7969 C1019.3781,160.7969 1019.9875,160.9531 1020.4563,161.2031 C1020.9406,161.4844 1021.1125,161.7031 1021.2063,162.1094 C1021.2688,162.5156 1021.3,162.6406 1021.4406,162.7656 C1021.5813,162.9063 1021.8156,163.0156 1022.0344,163.0156 C1022.3,163.0156 1022.5656,162.875 1022.7375,162.6563 C1022.8469,162.5 1022.8781,162.3125 1022.8781,161.8906 L1022.8781,160.4688 C1022.8781,160.0313 1022.8625,159.9063 1022.7688,159.75 C1022.6125,159.4844 1022.3313,159.3438 1022.0344,159.3438 C1021.7375,159.3438 1021.5344,159.4375 1021.3156,159.75 L1021.1438,159.6719 Z " fill="#000000"/><text fill="#000000" font-family="sans-serif" font-size="14" lengthAdjust="spacing" textLength="116" x="1036.2" y="168.8467">BarMeanFactory</text><line style="stroke:#181818;stroke-width:0.5;" x1="989.5" x2="1169.5" y1="180" y2="180"/><line style="stroke:#181818;stroke-width:0.5;" x1="989.5" x2="1169.5" y1="188" y2="188"/><ellipse cx="999.5" cy="201.6484" fill="#84BE84" rx="3" ry="3" style="stroke:#038048;stroke-width:1.0;"/><text fill="#000000" font-family="sans-serif" font-size="14" lengthAdjust="spacing" textLength="156" x="1008.5" y="204.9951">crear_analisis(): Media</text><ellipse cx="999.5" cy="217.9453" fill="#84BE84" rx="3" ry="3" style="stroke:#038048;stroke-width:1.0;"/><text fill="#000000" font-family="sans-serif" font-size="14" lengthAdjust="spacing" textLength="151" x="1008.5" y="221.292">crear_grafico(): Barra</text></g><!--class BarMedianFactory--><g id="elem_BarMedianFactory"><rect codeLine="31" fill="#F1F1F1" height="80.5938" id="BarMedianFactory" rx="2.5" ry="2.5" style="stroke:#181818;stroke-width:0.5;" width="199" x="1206" y="148"/><ellipse cx="1238.1" cy="164" fill="#ADD1B2" rx="11" ry="11" style="stroke:#181818;stroke-width:1.0;"/><path d="M1240.4438,159.6719 C1239.5063,159.2344 1238.9125,159.0938 1238.0375,159.0938 C1235.4125,159.0938 1233.4125,161.1719 1233.4125,163.8906 L1233.4125,165.0156 C1233.4125,167.5938 1235.5219,169.4844 1238.4125,169.4844 C1239.6313,169.4844 1240.7875,169.1875 1241.5375,168.6406 C1242.1156,168.2344 1242.4438,167.7813 1242.4438,167.3906 C1242.4438,166.9375 1242.0531,166.5469 1241.5844,166.5469 C1241.3656,166.5469 1241.1625,166.625 1240.975,166.8125 C1240.5219,167.2969 1240.5219,167.2969 1240.3344,167.3906 C1239.9125,167.6563 1239.225,167.7813 1238.4594,167.7813 C1236.4125,167.7813 1235.1156,166.6875 1235.1156,164.9844 L1235.1156,163.8906 C1235.1156,162.1094 1236.3656,160.7969 1238.1,160.7969 C1238.6781,160.7969 1239.2875,160.9531 1239.7563,161.2031 C1240.2406,161.4844 1240.4125,161.7031 1240.5063,162.1094 C1240.5688,162.5156 1240.6,162.6406 1240.7406,162.7656 C1240.8813,162.9063 1241.1156,163.0156 1241.3344,163.0156 C1241.6,163.0156 1241.8656,162.875 1242.0375,162.6563 C1242.1469,162.5 1242.1781,162.3125 1242.1781,161.8906 L1242.1781,160.4688 C1242.1781,160.0313 1242.1625,159.9063 1242.0688,159.75 C1241.9125,159.4844 1241.6313,159.3438 1241.3344,159.3438 C1241.0375,159.3438 1240.8344,159.4375 1240.6156,159.75 L1240.4438,159.6719 Z " fill="#000000"/><text fill="#000000" font-family="sans-serif" font-size="14" lengthAdjust="spacing" textLength="129" x="1255.9" y="168.8467">BarMedianFactory</text><line style="stroke:#181818;stroke-width:0.5;" x1="1207" x2="1404" y1="180" y2="180"/><line style="stroke:#181818;stroke-width:0.5;" x1="1207" x2="1404" y1="188" y2="188"/><ellipse cx="1217" cy="201.6484" fill="#84BE84" rx="3" ry="3" style="stroke:#038048;stroke-width:1.0;"/><text fill="#000000" font-family="sans-serif" font-size="14" lengthAdjust="spacing" textLength="173" x="1226" y="204.9951">crear_analisis(): Mediana</text><ellipse cx="1217" cy="217.9453" fill="#84BE84" rx="3" ry="3" style="stroke:#038048;stroke-width:1.0;"/><text fill="#000000" font-family="sans-serif" font-size="14" lengthAdjust="spacing" textLength="151" x="1226" y="221.292">crear_grafico(): Barra</text></g><!--class AbstractAnalisis--><g id="elem_AbstractAnalisis"><rect codeLine="36" fill="#F1F1F1" height="64.2969" id="AbstractAnalisis" rx="2.5" ry="2.5" style="stroke:#181818;stroke-width:0.5;" width="145" x="1673" y="15.5"/><ellipse cx="1688" cy="31.5" fill="#A9DCDF" rx="11" ry="11" style="stroke:#181818;stroke-width:1.0;"/><path d="M1690.0781,33.3125 L1690.4688,34.2969 L1690.0781,34.2969 C1689.625,34.2969 1689.5156,34.3125 1689.3594,34.4219 C1689.1094,34.5781 1688.9531,34.8594 1688.9531,35.1563 C1688.9531,35.4219 1689.0938,35.6719 1689.3125,35.8281 C1689.4531,35.9531 1689.6563,36 1690.0781,36 L1692.4375,36 C1692.7969,36 1693.0156,35.9688 1693.1563,35.875 C1693.4063,35.7344 1693.5625,35.4375 1693.5625,35.1563 C1693.5625,34.875 1693.4219,34.625 1693.2031,34.4688 C1693.0313,34.3281 1692.875,34.2969 1692.4063,34.2969 L1689.0156,26.0938 L1685.3438,26.0938 C1684.8906,26.0938 1684.7656,26.1094 1684.6094,26.2031 C1684.3594,26.375 1684.2031,26.6563 1684.2031,26.9375 C1684.2031,27.2188 1684.3438,27.4688 1684.5625,27.6406 C1684.7344,27.75 1684.9063,27.7813 1685.3438,27.7813 L1686.4219,27.7813 L1683.7813,34.2969 C1683.3594,34.2969 1683.2031,34.3125 1683.0469,34.4219 C1682.7969,34.5781 1682.6406,34.8594 1682.6406,35.1563 C1682.6406,35.7188 1683.0156,36 1683.7656,36 L1686.0313,36 C1686.3906,36 1686.6094,35.9688 1686.7344,35.875 C1687,35.7344 1687.1406,35.4375 1687.1406,35.1563 C1687.1406,34.875 1687.0156,34.625 1686.7969,34.4531 C1686.625,34.3281 1686.4844,34.2969 1686.0313,34.2969 L1685.6406,34.2969 L1686.0313,33.3125 L1690.0781,33.3125 Z M1689.375,31.6094 L1686.7031,31.6094 L1688.0469,28.3438 L1689.375,31.6094 Z " fill="#000000"/><text fill="#000000" font-family="sans-serif" font-size="14" font-style="italic" lengthAdjust="spacing" textLength="113" x="1702" y="36.3467">AbstractAnalisis</text><line style="stroke:#181818;stroke-width:0.5;" x1="1674" x2="1817" y1="47.5" y2="47.5"/><line style="stroke:#181818;stroke-width:0.5;" x1="1674" x2="1817" y1="55.5" y2="55.5"/><ellipse cx="1684" cy="69.1484" fill="#84BE84" rx="3" ry="3" style="stroke:#038048;stroke-width:1.0;"/><text fill="#000000" font-family="sans-serif" font-size="14" font-style="italic" lengthAdjust="spacing" textLength="94" x="1693" y="72.4951">calcular(): int</text></g><!--class Moda--><g id="elem_Moda"><rect codeLine="40" fill="#F1F1F1" height="64.2969" id="Moda" rx="2.5" ry="2.5" style="stroke:#181818;stroke-width:0.5;" width="180" x="1440.5" y="156.5"/><ellipse cx="1507.25" cy="172.5" fill="#ADD1B2" rx="11" ry="11" style="stroke:#181818;stroke-width:1.0;"/><path d="M1509.5938,168.1719 C1508.6563,167.7344 1508.0625,167.5938 1507.1875,167.5938 C1504.5625,167.5938 1502.5625,169.6719 1502.5625,172.3906 L1502.5625,173.5156 C1502.5625,176.0938 1504.6719,177.9844 1507.5625,177.9844 C1508.7813,177.9844 1509.9375,177.6875 1510.6875,177.1406 C1511.2656,176.7344 1511.5938,176.2813 1511.5938,175.8906 C1511.5938,175.4375 1511.2031,175.0469 1510.7344,175.0469 C1510.5156,175.0469 1510.3125,175.125 1510.125,175.3125 C1509.6719,175.7969 1509.6719,175.7969 1509.4844,175.8906 C1509.0625,176.1563 1508.375,176.2813 1507.6094,176.2813 C1505.5625,176.2813 1504.2656,175.1875 1504.2656,173.4844 L1504.2656,172.3906 C1504.2656,170.6094 1505.5156,169.2969 1507.25,169.2969 C1507.8281,169.2969 1508.4375,169.4531 1508.9063,169.7031 C1509.3906,169.9844 1509.5625,170.2031 1509.6563,170.6094 C1509.7188,171.0156 1509.75,171.1406 1509.8906,171.2656 C1510.0313,171.4063 1510.2656,171.5156 1510.4844,171.5156 C1510.75,171.5156 1511.0156,171.375 1511.1875,171.1563 C1511.2969,171 1511.3281,170.8125 1511.3281,170.3906 L1511.3281,168.9688 C1511.3281,168.5313 1511.3125,168.4063 1511.2188,168.25 C1511.0625,167.9844 1510.7813,167.8438 1510.4844,167.8438 C1510.1875,167.8438 1509.9844,167.9375 1509.7656,168.25 L1509.5938,168.1719 Z " fill="#000000"/><text fill="#000000" font-family="sans-serif" font-size="14" lengthAdjust="spacing" textLength="38" x="1527.75" y="177.3467">Moda</text><line style="stroke:#181818;stroke-width:0.5;" x1="1441.5" x2="1619.5" y1="188.5" y2="188.5"/><line style="stroke:#181818;stroke-width:0.5;" x1="1441.5" x2="1619.5" y1="196.5" y2="196.5"/><ellipse cx="1451.5" cy="210.1484" fill="#84BE84" rx="3" ry="3" style="stroke:#038048;stroke-width:1.0;"/><text fill="#000000" font-family="sans-serif" font-size="14" lengthAdjust="spacing" textLength="154" x="1460.5" y="213.4951">calcular(data, col): int</text></g><!--class Media--><g id="elem_Media"><rect codeLine="44" fill="#F1F1F1" height="64.2969" id="Media" rx="2.5" ry="2.5" style="stroke:#181818;stroke-width:0.5;" width="180" x="1655.5" y="156.5"/><ellipse cx="1720.25" cy="172.5" fill="#ADD1B2" rx="11" ry="11" style="stroke:#181818;stroke-width:1.0;"/><path d="M1722.5938,168.1719 C1721.6563,167.7344 1721.0625,167.5938 1720.1875,167.5938 C1717.5625,167.5938 1715.5625,169.6719 1715.5625,172.3906 L1715.5625,173.5156 C1715.5625,176.0938 1717.6719,177.9844 1720.5625,177.9844 C1721.7813,177.9844 1722.9375,177.6875 1723.6875,177.1406 C1724.2656,176.7344 1724.5938,176.2813 1724.5938,175.8906 C1724.5938,175.4375 1724.2031,175.0469 1723.7344,175.0469 C1723.5156,175.0469 1723.3125,175.125 1723.125,175.3125 C1722.6719,175.7969 1722.6719,175.7969 1722.4844,175.8906 C1722.0625,176.1563 1721.375,176.2813 1720.6094,176.2813 C1718.5625,176.2813 1717.2656,175.1875 1717.2656,173.4844 L1717.2656,172.3906 C1717.2656,170.6094 1718.5156,169.2969 1720.25,169.2969 C1720.8281,169.2969 1721.4375,169.4531 1721.9063,169.7031 C1722.3906,169.9844 1722.5625,170.2031 1722.6563,170.6094 C1722.7188,171.0156 1722.75,171.1406 1722.8906,171.2656 C1723.0313,171.4063 1723.2656,171.5156 1723.4844,171.5156 C1723.75,171.5156 1724.0156,171.375 1724.1875,171.1563 C1724.2969,171 1724.3281,170.8125 1724.3281,170.3906 L1724.3281,168.9688 C1724.3281,168.5313 1724.3125,168.4063 1724.2188,168.25 C1724.0625,167.9844 1723.7813,167.8438 1723.4844,167.8438 C1723.1875,167.8438 1722.9844,167.9375 1722.7656,168.25 L1722.5938,168.1719 Z " fill="#000000"/><text fill="#000000" font-family="sans-serif" font-size="14" lengthAdjust="spacing" textLength="42" x="1740.75" y="177.3467">Media</text><line style="stroke:#181818;stroke-width:0.5;" x1="1656.5" x2="1834.5" y1="188.5" y2="188.5"/><line style="stroke:#181818;stroke-width:0.5;" x1="1656.5" x2="1834.5" y1="196.5" y2="196.5"/><ellipse cx="1666.5" cy="210.1484" fill="#84BE84" rx="3" ry="3" style="stroke:#038048;stroke-width:1.0;"/><text fill="#000000" font-family="sans-serif" font-size="14" lengthAdjust="spacing" textLength="154" x="1675.5" y="213.4951">calcular(data, col): int</text></g><!--class Mediana--><g id="elem_Mediana"><rect codeLine="48" fill="#F1F1F1" height="64.2969" id="Mediana" rx="2.5" ry="2.5" style="stroke:#181818;stroke-width:0.5;" width="180" x="1870.5" y="156.5"/><ellipse cx="1926.75" cy="172.5" fill="#ADD1B2" rx="11" ry="11" style="stroke:#181818;stroke-width:1.0;"/><path d="M1929.0938,168.1719 C1928.1563,167.7344 1927.5625,167.5938 1926.6875,167.5938 C1924.0625,167.5938 1922.0625,169.6719 1922.0625,172.3906 L1922.0625,173.5156 C1922.0625,176.0938 1924.1719,177.9844 1927.0625,177.9844 C1928.2813,177.9844 1929.4375,177.6875 1930.1875,177.1406 C1930.7656,176.7344 1931.0938,176.2813 1931.0938,175.8906 C1931.0938,175.4375 1930.7031,175.0469 1930.2344,175.0469 C1930.0156,175.0469 1929.8125,175.125 1929.625,175.3125 C1929.1719,175.7969 1929.1719,175.7969 1928.9844,175.8906 C1928.5625,176.1563 1927.875,176.2813 1927.1094,176.2813 C1925.0625,176.2813 1923.7656,175.1875 1923.7656,173.4844 L1923.7656,172.3906 C1923.7656,170.6094 1925.0156,169.2969 1926.75,169.2969 C1927.3281,169.2969 1927.9375,169.4531 1928.4063,169.7031 C1928.8906,169.9844 1929.0625,170.2031 1929.1563,170.6094 C1929.2188,171.0156 1929.25,171.1406 1929.3906,171.2656 C1929.5313,171.4063 1929.7656,171.5156 1929.9844,171.5156 C1930.25,171.5156 1930.5156,171.375 1930.6875,171.1563 C1930.7969,171 1930.8281,170.8125 1930.8281,170.3906 L1930.8281,168.9688 C1930.8281,168.5313 1930.8125,168.4063 1930.7188,168.25 C1930.5625,167.9844 1930.2813,167.8438 1929.9844,167.8438 C1929.6875,167.8438 1929.4844,167.9375 1929.2656,168.25 L1929.0938,168.1719 Z " fill="#000000"/><text fill="#000000" font-family="sans-serif" font-size="14" lengthAdjust="spacing" textLength="59" x="1947.25" y="177.3467">Mediana</text><line style="stroke:#181818;stroke-width:0.5;" x1="1871.5" x2="2049.5" y1="188.5" y2="188.5"/><line style="stroke:#181818;stroke-width:0.5;" x1="1871.5" x2="2049.5" y1="196.5" y2="196.5"/><ellipse cx="1881.5" cy="210.1484" fill="#84BE84" rx="3" ry="3" style="stroke:#038048;stroke-width:1.0;"/><text fill="#000000" font-family="sans-serif" font-size="14" lengthAdjust="spacing" textLength="154" x="1890.5" y="213.4951">calcular(data, col): int</text></g><!--class AbstractGrafico--><g id="elem_AbstractGrafico"><rect codeLine="52" fill="#F1F1F1" height="64.2969" id="AbstractGrafico" rx="2.5" ry="2.5" style="stroke:#181818;stroke-width:0.5;" width="143" x="2207" y="15.5"/><ellipse cx="2222" cy="31.5" fill="#A9DCDF" rx="11" ry="11" style="stroke:#181818;stroke-width:1.0;"/><path d="M2224.0781,33.3125 L2224.4688,34.2969 L2224.0781,34.2969 C2223.625,34.2969 2223.5156,34.3125 2223.3594,34.4219 C2223.1094,34.5781 2222.9531,34.8594 2222.9531,35.1563 C2222.9531,35.4219 2223.0938,35.6719 2223.3125,35.8281 C2223.4531,35.9531 2223.6563,36 2224.0781,36 L2226.4375,36 C2226.7969,36 2227.0156,35.9688 2227.1563,35.875 C2227.4063,35.7344 2227.5625,35.4375 2227.5625,35.1563 C2227.5625,34.875 2227.4219,34.625 2227.2031,34.4688 C2227.0313,34.3281 2226.875,34.2969 2226.4063,34.2969 L2223.0156,26.0938 L2219.3438,26.0938 C2218.8906,26.0938 2218.7656,26.1094 2218.6094,26.2031 C2218.3594,26.375 2218.2031,26.6563 2218.2031,26.9375 C2218.2031,27.2188 2218.3438,27.4688 2218.5625,27.6406 C2218.7344,27.75 2218.9063,27.7813 2219.3438,27.7813 L2220.4219,27.7813 L2217.7813,34.2969 C2217.3594,34.2969 2217.2031,34.3125 2217.0469,34.4219 C2216.7969,34.5781 2216.6406,34.8594 2216.6406,35.1563 C2216.6406,35.7188 2217.0156,36 2217.7656,36 L2220.0313,36 C2220.3906,36 2220.6094,35.9688 2220.7344,35.875 C2221,35.7344 2221.1406,35.4375 2221.1406,35.1563 C2221.1406,34.875 2221.0156,34.625 2220.7969,34.4531 C2220.625,34.3281 2220.4844,34.2969 2220.0313,34.2969 L2219.6406,34.2969 L2220.0313,33.3125 L2224.0781,33.3125 Z M2223.375,31.6094 L2220.7031,31.6094 L2222.0469,28.3438 L2223.375,31.6094 Z " fill="#000000"/><text fill="#000000" font-family="sans-serif" font-size="14" font-style="italic" lengthAdjust="spacing" textLength="111" x="2236" y="36.3467">AbstractGrafico</text><line style="stroke:#181818;stroke-width:0.5;" x1="2208" x2="2349" y1="47.5" y2="47.5"/><line style="stroke:#181818;stroke-width:0.5;" x1="2208" x2="2349" y1="55.5" y2="55.5"/><ellipse cx="2218" cy="69.1484" fill="#84BE84" rx="3" ry="3" style="stroke:#038048;stroke-width:1.0;"/><text fill="#000000" font-family="sans-serif" font-size="14" font-style="italic" lengthAdjust="spacing" textLength="87" x="2227" y="72.4951">dibujar(): int</text></g><!--class Histograma--><g id="elem_Histograma"><rect codeLine="56" fill="#F1F1F1" height="64.2969" id="Histograma" rx="2.5" ry="2.5" style="stroke:#181818;stroke-width:0.5;" width="175" x="2086" y="156.5"/><ellipse cx="2128.45" cy="172.5" fill="#ADD1B2" rx="11" ry="11" style="stroke:#181818;stroke-width:1.0;"/><path d="M2130.7938,168.1719 C2129.8563,167.7344 2129.2625,167.5938 2128.3875,167.5938 C2125.7625,167.5938 2123.7625,169.6719 2123.7625,172.3906 L2123.7625,173.5156 C2123.7625,176.0938 2125.8719,177.9844 2128.7625,177.9844 C2129.9813,177.9844 2131.1375,177.6875 2131.8875,177.1406 C2132.4656,176.7344 2132.7938,176.2813 2132.7938,175.8906 C2132.7938,175.4375 2132.4031,175.0469 2131.9344,175.0469 C2131.7156,175.0469 2131.5125,175.125 2131.325,175.3125 C2130.8719,175.7969 2130.8719,175.7969 2130.6844,175.8906 C2130.2625,176.1563 2129.575,176.2813 2128.8094,176.2813 C2126.7625,176.2813 2125.4656,175.1875 2125.4656,173.4844 L2125.4656,172.3906 C2125.4656,170.6094 2126.7156,169.2969 2128.45,169.2969 C2129.0281,169.2969 2129.6375,169.4531 2130.1063,169.7031 C2130.5906,169.9844 2130.7625,170.2031 2130.8563,170.6094 C2130.9188,171.0156 2130.95,171.1406 2131.0906,171.2656 C2131.2313,171.4063 2131.4656,171.5156 2131.6844,171.5156 C2131.95,171.5156 2132.2156,171.375 2132.3875,171.1563 C2132.4969,171 2132.5281,170.8125 2132.5281,170.3906 L2132.5281,168.9688 C2132.5281,168.5313 2132.5125,168.4063 2132.4188,168.25 C2132.2625,167.9844 2131.9813,167.8438 2131.6844,167.8438 C2131.3875,167.8438 2131.1844,167.9375 2130.9656,168.25 L2130.7938,168.1719 Z " fill="#000000"/><text fill="#000000" font-family="sans-serif" font-size="14" lengthAdjust="spacing" textLength="82" x="2148.55" y="177.3467">Histograma</text><line style="stroke:#181818;stroke-width:0.5;" x1="2087" x2="2260" y1="188.5" y2="188.5"/><line style="stroke:#181818;stroke-width:0.5;" x1="2087" x2="2260" y1="196.5" y2="196.5"/><ellipse cx="2097" cy="210.1484" fill="#84BE84" rx="3" ry="3" style="stroke:#038048;stroke-width:1.0;"/><text fill="#000000" font-family="sans-serif" font-size="14" lengthAdjust="spacing" textLength="149" x="2106" y="213.4951">dibujar(data, col): int</text></g><!--class Barra--><g id="elem_Barra"><rect codeLine="60" fill="#F1F1F1" height="64.2969" id="Barra" rx="2.5" ry="2.5" style="stroke:#181818;stroke-width:0.5;" width="175" x="2296" y="156.5"/><ellipse cx="2360.25" cy="172.5" fill="#ADD1B2" rx="11" ry="11" style="stroke:#181818;stroke-width:1.0;"/><path d="M2362.5938,168.1719 C2361.6563,167.7344 2361.0625,167.5938 2360.1875,167.5938 C2357.5625,167.5938 2355.5625,169.6719 2355.5625,172.3906 L2355.5625,173.5156 C2355.5625,176.0938 2357.6719,177.9844 2360.5625,177.9844 C2361.7813,177.9844 2362.9375,177.6875 2363.6875,177.1406 C2364.2656,176.7344 2364.5938,176.2813 2364.5938,175.8906 C2364.5938,175.4375 2364.2031,175.0469 2363.7344,175.0469 C2363.5156,175.0469 2363.3125,175.125 2363.125,175.3125 C2362.6719,175.7969 2362.6719,175.7969 2362.4844,175.8906 C2362.0625,176.1563 2361.375,176.2813 2360.6094,176.2813 C2358.5625,176.2813 2357.2656,175.1875 2357.2656,173.4844 L2357.2656,172.3906 C2357.2656,170.6094 2358.5156,169.2969 2360.25,169.2969 C2360.8281,169.2969 2361.4375,169.4531 2361.9063,169.7031 C2362.3906,169.9844 2362.5625,170.2031 2362.6563,170.6094 C2362.7188,171.0156 2362.75,171.1406 2362.8906,171.2656 C2363.0313,171.4063 2363.2656,171.5156 2363.4844,171.5156 C2363.75,171.5156 2364.0156,171.375 2364.1875,171.1563 C2364.2969,171 2364.3281,170.8125 2364.3281,170.3906 L2364.3281,168.9688 C2364.3281,168.5313 2364.3125,168.4063 2364.2188,168.25 C2364.0625,167.9844 2363.7813,167.8438 2363.4844,167.8438 C2363.1875,167.8438 2362.9844,167.9375 2362.7656,168.25 L2362.5938,168.1719 Z " fill="#000000"/><text fill="#000000" font-family="sans-serif" font-size="14" lengthAdjust="spacing" textLength="38" x="2380.75" y="177.3467">Barra</text><line style="stroke:#181818;stroke-width:0.5;" x1="2297" x2="2470" y1="188.5" y2="188.5"/><line style="stroke:#181818;stroke-width:0.5;" x1="2297" x2="2470" y1="196.5" y2="196.5"/><ellipse cx="2307" cy="210.1484" fill="#84BE84" rx="3" ry="3" style="stroke:#038048;stroke-width:1.0;"/><text fill="#000000" font-family="sans-serif" font-size="14" lengthAdjust="spacing" textLength="149" x="2316" y="213.4951">dibujar(data, col): int</text></g><!--reverse link AbstractFactory to HistModeFactory--><g id="link_AbstractFactory_HistModeFactory"><path codeLine="64" d="M600.5559,73.3533 C498.8489,91.4683 371.126,116.232 245.5,148 C239.863,149.4254 234.107,150.9491 228.308,152.5383 " fill="none" id="AbstractFactory-backto-HistModeFactory" style="stroke:#181818;stroke-width:1.0;"/><polygon fill="none" points="618.277,70.197,599.5038,67.4463,601.608,79.2603,618.277,70.197" style="stroke:#181818;stroke-width:1.0;"/></g><!--reverse link AbstractFactory to HistMeanFactory--><g id="link_AbstractFactory_HistMeanFactory"><path codeLine="65" d="M623.2451,94.4316 C572.9661,113.1686 529.962,129.1937 479.706,147.9219 " fill="none" id="AbstractFactory-backto-HistMeanFactory" style="stroke:#181818;stroke-width:1.0;"/><polygon fill="none" points="640.112,88.146,621.1499,88.8093,625.3403,100.0539,640.112,88.146" style="stroke:#181818;stroke-width:1.0;"/></g><!--reverse link AbstractFactory to HistMedianFactory--><g id="link_AbstractFactory_HistMedianFactory"><path codeLine="66" d="M701.3807,102.103 C685.7147,120.715 678.699,129.0499 663.032,147.6624 " fill="none" id="AbstractFactory-backto-HistMedianFactory" style="stroke:#181818;stroke-width:1.0;"/><polygon fill="none" points="712.972,88.332,696.7904,98.2393,705.9711,105.9668,712.972,88.332" style="stroke:#181818;stroke-width:1.0;"/></g><!--reverse link AbstractFactory to BarModeFactory--><g id="link_AbstractFactory_BarModeFactory"><path codeLine="67" d="M791.963,102.0543 C807.763,120.6663 814.88,129.0499 830.681,147.6624 " fill="none" id="AbstractFactory-backto-BarModeFactory" style="stroke:#181818;stroke-width:1.0;"/><polygon fill="none" points="780.314,88.332,787.3889,105.9373,796.5371,98.1712,780.314,88.332" style="stroke:#181818;stroke-width:1.0;"/></g><!--reverse link AbstractFactory to BarMeanFactory--><g id="link_AbstractFactory_BarMeanFactory"><path codeLine="68" d="M858.09,95.0796 C904.227,114.3376 942.799,130.4386 988.41,149.4774 " fill="none" id="AbstractFactory-backto-BarMeanFactory" style="stroke:#181818;stroke-width:1.0;"/><polygon fill="none" points="841.479,88.146,855.7788,100.6166,860.4012,89.5426,841.479,88.146" style="stroke:#181818;stroke-width:1.0;"/></g><!--reverse link AbstractFactory to BarMedianFactory--><g id="link_AbstractFactory_BarMedianFactory"><path codeLine="69" d="M892.3463,77.5115 C980.8083,95.8745 1083.18,118.853 1187.5,148 C1193.53,149.6859 1199.71,151.4968 1205.93,153.3827 " fill="none" id="AbstractFactory-backto-BarMedianFactory" style="stroke:#181818;stroke-width:1.0;"/><polygon fill="none" points="874.722,73.853,891.1268,83.3862,893.5658,71.6367,874.722,73.853" style="stroke:#181818;stroke-width:1.0;"/></g><!--reverse link AbstractAnalisis to Moda--><g id="link_AbstractAnalisis_Moda"><path codeLine="71" d="M1682.4035,89.2929 C1647.0035,112.1769 1614.16,133.4155 1578.71,156.3334 " fill="none" id="AbstractAnalisis-backto-Moda" style="stroke:#181818;stroke-width:1.0;"/><polygon fill="none" points="1697.52,79.521,1679.1462,84.2541,1685.6608,94.3318,1697.52,79.521" style="stroke:#181818;stroke-width:1.0;"/></g><!--reverse link AbstractAnalisis to Media--><g id="link_AbstractAnalisis_Media"><path codeLine="72" d="M1745.5,97.694 C1745.5,120.587 1745.5,133.5421 1745.5,156.4098 " fill="none" id="AbstractAnalisis-backto-Media" style="stroke:#181818;stroke-width:1.0;"/><polygon fill="none" points="1745.5,79.694,1739.5,97.694,1751.5,97.694,1745.5,79.694" style="stroke:#181818;stroke-width:1.0;"/></g><!--reverse link AbstractAnalisis to Mediana--><g id="link_AbstractAnalisis_Mediana"><path codeLine="73" d="M1808.5965,89.2929 C1843.9965,112.1769 1876.84,133.4155 1912.29,156.3334 " fill="none" id="AbstractAnalisis-backto-Mediana" style="stroke:#181818;stroke-width:1.0;"/><polygon fill="none" points="1793.48,79.521,1805.3392,94.3318,1811.8538,84.2541,1793.48,79.521" style="stroke:#181818;stroke-width:1.0;"/></g><!--reverse link AbstractGrafico to Histograma--><g id="link_AbstractGrafico_Histograma"><path codeLine="75" d="M2244.0878,94.0547 C2226.7878,116.9477 2214.26,133.5421 2196.99,156.4098 " fill="none" id="AbstractGrafico-backto-Histograma" style="stroke:#181818;stroke-width:1.0;"/><polygon fill="none" points="2254.94,79.694,2239.3009,90.4373,2248.8747,97.6721,2254.94,79.694" style="stroke:#181818;stroke-width:1.0;"/></g><!--reverse link AbstractGrafico to Barra--><g id="link_AbstractGrafico_Barra"><path codeLine="76" d="M2312.9122,94.0547 C2330.2122,116.9477 2342.74,133.5421 2360.01,156.4098 " fill="none" id="AbstractGrafico-backto-Barra" style="stroke:#181818;stroke-width:1.0;"/><polygon fill="none" points="2302.06,79.694,2308.1253,97.6721,2317.6991,90.4373,2302.06,79.694" style="stroke:#181818;stroke-width:1.0;"/></g><!--SRC=[fPDDai8W48Ntd8AbremNc7BZBCRPU0RhIT1Y2g4AS36btbr2o8-4n5XPP07zzUjkyXe7wmoOeqp2Mhg9nn__QVDFhuJIA-BbdNumms7sK9322hjOVZKPctYNJJWP70NJNNvRNP4x8LNfNs7TJXUyMpfJpoDe8ntXCb_xync99eTwfSaByQwepvWagwOBVyFCUG2VRXArEQFdv6OEtKWYxxhQGttRGRABX2b5X79jL-LZn4vgf8339sLQzjYoixTWDG4V62NQkpT98GwNlymWhH-gaZKts61uovTiki_hssgLRje8rFfd3Egu8eyz6tkOuHDqdggHddC25rPa81JyFXBprYNfJsncZHkRZOSVyW00]--></g></svg>