<?xml version="1.0" encoding="us-ascii" standalone="no"?><svg xmlns="http://www.w3.org/2000/svg" xmlns:xlink="http://www.w3.org/1999/xlink" contentStyleType="text/css" height="377px" preserveAspectRatio="none" style="width:885px;height:377px;background:#FFFFFF;" version="1.1" viewBox="0 0 885 377" width="885px" zoomAndPan="magnify"><defs/><g><!--class AbstractFactory--><g id="elem_AbstractFactory"><rect codeLine="1" fill="#F1F1F1" height="96.8906" id="AbstractFactory" rx="2.5" ry="2.5" style="stroke:#181818;stroke-width:0.5;" width="256" x="7" y="132"/><ellipse cx="74.75" cy="148" fill="#A9DCDF" rx="11" ry="11" style="stroke:#181818;stroke-width:1.0;"/><path d="M76.8281,149.8125 L77.2188,150.7969 L76.8281,150.7969 C76.375,150.7969 76.2656,150.8125 76.1094,150.9219 C75.8594,151.0781 75.7031,151.3594 75.7031,151.6563 C75.7031,151.9219 75.8438,152.1719 76.0625,152.3281 C76.2031,152.4531 76.4063,152.5 76.8281,152.5 L79.1875,152.5 C79.5469,152.5 79.7656,152.4688 79.9063,152.375 C80.1563,152.2344 80.3125,151.9375 80.3125,151.6563 C80.3125,151.375 80.1719,151.125 79.9531,150.9688 C79.7813,150.8281 79.625,150.7969 79.1563,150.7969 L75.7656,142.5938 L72.0938,142.5938 C71.6406,142.5938 71.5156,142.6094 71.3594,142.7031 C71.1094,142.875 70.9531,143.1563 70.9531,143.4375 C70.9531,143.7188 71.0938,143.9688 71.3125,144.1406 C71.4844,144.25 71.6563,144.2813 72.0938,144.2813 L73.1719,144.2813 L70.5313,150.7969 C70.1094,150.7969 69.9531,150.8125 69.7969,150.9219 C69.5469,151.0781 69.3906,151.3594 69.3906,151.6563 C69.3906,152.2188 69.7656,152.5 70.5156,152.5 L72.7813,152.5 C73.1406,152.5 73.3594,152.4688 73.4844,152.375 C73.75,152.2344 73.8906,151.9375 73.8906,151.6563 C73.8906,151.375 73.7656,151.125 73.5469,150.9531 C73.375,150.8281 73.2344,150.7969 72.7813,150.7969 L72.3906,150.7969 L72.7813,149.8125 L76.8281,149.8125 Z M76.125,148.1094 L73.4531,148.1094 L74.7969,144.8438 L76.125,148.1094 Z " fill="#000000"/><text fill="#000000" font-family="sans-serif" font-size="14" font-style="italic" lengthAdjust="spacing" textLength="112" x="95.25" y="152.8467">AbstractFactory</text><line style="stroke:#181818;stroke-width:0.5;" x1="8" x2="262" y1="164" y2="164"/><line style="stroke:#181818;stroke-width:0.5;" x1="8" x2="262" y1="172" y2="172"/><text fill="#000000" font-family="sans-serif" font-size="14" font-style="italic" lengthAdjust="spacing" textLength="222" x="13" y="188.9951">crear_moda() : AbstractAnalisis</text><text fill="#000000" font-family="sans-serif" font-size="14" font-style="italic" lengthAdjust="spacing" textLength="226" x="13" y="205.292">crear_media() : AbstractAnalisis</text><text fill="#000000" font-family="sans-serif" font-size="14" font-style="italic" lengthAdjust="spacing" textLength="244" x="13" y="221.5889">crear_mediana() : AbstractAnalisis</text></g><!--class AnalisisFactory--><g id="elem_AnalisisFactory"><rect codeLine="7" fill="#F1F1F1" height="48" id="AnalisisFactory" rx="2.5" ry="2.5" style="stroke:#181818;stroke-width:0.5;" width="139" x="415.5" y="7"/><ellipse cx="430.5" cy="23" fill="#ADD1B2" rx="11" ry="11" style="stroke:#181818;stroke-width:1.0;"/><path d="M432.8438,18.6719 C431.9063,18.2344 431.3125,18.0938 430.4375,18.0938 C427.8125,18.0938 425.8125,20.1719 425.8125,22.8906 L425.8125,24.0156 C425.8125,26.5938 427.9219,28.4844 430.8125,28.4844 C432.0313,28.4844 433.1875,28.1875 433.9375,27.6406 C434.5156,27.2344 434.8438,26.7813 434.8438,26.3906 C434.8438,25.9375 434.4531,25.5469 433.9844,25.5469 C433.7656,25.5469 433.5625,25.625 433.375,25.8125 C432.9219,26.2969 432.9219,26.2969 432.7344,26.3906 C432.3125,26.6563 431.625,26.7813 430.8594,26.7813 C428.8125,26.7813 427.5156,25.6875 427.5156,23.9844 L427.5156,22.8906 C427.5156,21.1094 428.7656,19.7969 430.5,19.7969 C431.0781,19.7969 431.6875,19.9531 432.1563,20.2031 C432.6406,20.4844 432.8125,20.7031 432.9063,21.1094 C432.9688,21.5156 433,21.6406 433.1406,21.7656 C433.2813,21.9063 433.5156,22.0156 433.7344,22.0156 C434,22.0156 434.2656,21.875 434.4375,21.6563 C434.5469,21.5 434.5781,21.3125 434.5781,20.8906 L434.5781,19.4688 C434.5781,19.0313 434.5625,18.9063 434.4688,18.75 C434.3125,18.4844 434.0313,18.3438 433.7344,18.3438 C433.4375,18.3438 433.2344,18.4375 433.0156,18.75 L432.8438,18.6719 Z " fill="#000000"/><text fill="#000000" font-family="sans-serif" font-size="14" lengthAdjust="spacing" textLength="107" x="444.5" y="27.8467">AnalisisFactory</text><line style="stroke:#181818;stroke-width:0.5;" x1="416.5" x2="553.5" y1="39" y2="39"/><line style="stroke:#181818;stroke-width:0.5;" x1="416.5" x2="553.5" y1="47" y2="47"/></g><!--class AbstractAnalisis--><g id="elem_AbstractAnalisis"><rect codeLine="12" fill="#F1F1F1" height="64.2969" id="AbstractAnalisis" rx="2.5" ry="2.5" style="stroke:#181818;stroke-width:0.5;" width="145" x="515.5" y="306"/><ellipse cx="530.5" cy="322" fill="#A9DCDF" rx="11" ry="11" style="stroke:#181818;stroke-width:1.0;"/><path d="M532.5781,323.8125 L532.9688,324.7969 L532.5781,324.7969 C532.125,324.7969 532.0156,324.8125 531.8594,324.9219 C531.6094,325.0781 531.4531,325.3594 531.4531,325.6563 C531.4531,325.9219 531.5938,326.1719 531.8125,326.3281 C531.9531,326.4531 532.1563,326.5 532.5781,326.5 L534.9375,326.5 C535.2969,326.5 535.5156,326.4688 535.6563,326.375 C535.9063,326.2344 536.0625,325.9375 536.0625,325.6563 C536.0625,325.375 535.9219,325.125 535.7031,324.9688 C535.5313,324.8281 535.375,324.7969 534.9063,324.7969 L531.5156,316.5938 L527.8438,316.5938 C527.3906,316.5938 527.2656,316.6094 527.1094,316.7031 C526.8594,316.875 526.7031,317.1563 526.7031,317.4375 C526.7031,317.7188 526.8438,317.9688 527.0625,318.1406 C527.2344,318.25 527.4063,318.2813 527.8438,318.2813 L528.9219,318.2813 L526.2813,324.7969 C525.8594,324.7969 525.7031,324.8125 525.5469,324.9219 C525.2969,325.0781 525.1406,325.3594 525.1406,325.6563 C525.1406,326.2188 525.5156,326.5 526.2656,326.5 L528.5313,326.5 C528.8906,326.5 529.1094,326.4688 529.2344,326.375 C529.5,326.2344 529.6406,325.9375 529.6406,325.6563 C529.6406,325.375 529.5156,325.125 529.2969,324.9531 C529.125,324.8281 528.9844,324.7969 528.5313,324.7969 L528.1406,324.7969 L528.5313,323.8125 L532.5781,323.8125 Z M531.875,322.1094 L529.2031,322.1094 L530.5469,318.8438 L531.875,322.1094 Z " fill="#000000"/><text fill="#000000" font-family="sans-serif" font-size="14" font-style="italic" lengthAdjust="spacing" textLength="113" x="544.5" y="326.8467">AbstractAnalisis</text><line style="stroke:#181818;stroke-width:0.5;" x1="516.5" x2="659.5" y1="338" y2="338"/><line style="stroke:#181818;stroke-width:0.5;" x1="516.5" x2="659.5" y1="346" y2="346"/><text fill="#000000" font-family="sans-serif" font-size="14" font-style="italic" lengthAdjust="spacing" textLength="98" x="521.5" y="362.9951">calcular() : int</text></g><!--class Moda--><g id="elem_Moda"><rect codeLine="16" fill="#F1F1F1" height="64.2969" id="Moda" rx="2.5" ry="2.5" style="stroke:#181818;stroke-width:0.5;" width="170" x="298" y="148.5"/><ellipse cx="359.75" cy="164.5" fill="#ADD1B2" rx="11" ry="11" style="stroke:#181818;stroke-width:1.0;"/><path d="M362.0938,160.1719 C361.1563,159.7344 360.5625,159.5938 359.6875,159.5938 C357.0625,159.5938 355.0625,161.6719 355.0625,164.3906 L355.0625,165.5156 C355.0625,168.0938 357.1719,169.9844 360.0625,169.9844 C361.2813,169.9844 362.4375,169.6875 363.1875,169.1406 C363.7656,168.7344 364.0938,168.2813 364.0938,167.8906 C364.0938,167.4375 363.7031,167.0469 363.2344,167.0469 C363.0156,167.0469 362.8125,167.125 362.625,167.3125 C362.1719,167.7969 362.1719,167.7969 361.9844,167.8906 C361.5625,168.1563 360.875,168.2813 360.1094,168.2813 C358.0625,168.2813 356.7656,167.1875 356.7656,165.4844 L356.7656,164.3906 C356.7656,162.6094 358.0156,161.2969 359.75,161.2969 C360.3281,161.2969 360.9375,161.4531 361.4063,161.7031 C361.8906,161.9844 362.0625,162.2031 362.1563,162.6094 C362.2188,163.0156 362.25,163.1406 362.3906,163.2656 C362.5313,163.4063 362.7656,163.5156 362.9844,163.5156 C363.25,163.5156 363.5156,163.375 363.6875,163.1563 C363.7969,163 363.8281,162.8125 363.8281,162.3906 L363.8281,160.9688 C363.8281,160.5313 363.8125,160.4063 363.7188,160.25 C363.5625,159.9844 363.2813,159.8438 362.9844,159.8438 C362.6875,159.8438 362.4844,159.9375 362.2656,160.25 L362.0938,160.1719 Z " fill="#000000"/><text fill="#000000" font-family="sans-serif" font-size="14" lengthAdjust="spacing" textLength="38" x="380.25" y="169.3467">Moda</text><line style="stroke:#181818;stroke-width:0.5;" x1="299" x2="467" y1="180.5" y2="180.5"/><line style="stroke:#181818;stroke-width:0.5;" x1="299" x2="467" y1="188.5" y2="188.5"/><text fill="#000000" font-family="sans-serif" font-size="14" lengthAdjust="spacing" textLength="158" x="304" y="205.4951">calcular(data, col) : int</text></g><!--class Media--><g id="elem_Media"><rect codeLine="20" fill="#F1F1F1" height="64.2969" id="Media" rx="2.5" ry="2.5" style="stroke:#181818;stroke-width:0.5;" width="170" x="503" y="148.5"/><ellipse cx="562.75" cy="164.5" fill="#ADD1B2" rx="11" ry="11" style="stroke:#181818;stroke-width:1.0;"/><path d="M565.0938,160.1719 C564.1563,159.7344 563.5625,159.5938 562.6875,159.5938 C560.0625,159.5938 558.0625,161.6719 558.0625,164.3906 L558.0625,165.5156 C558.0625,168.0938 560.1719,169.9844 563.0625,169.9844 C564.2813,169.9844 565.4375,169.6875 566.1875,169.1406 C566.7656,168.7344 567.0938,168.2813 567.0938,167.8906 C567.0938,167.4375 566.7031,167.0469 566.2344,167.0469 C566.0156,167.0469 565.8125,167.125 565.625,167.3125 C565.1719,167.7969 565.1719,167.7969 564.9844,167.8906 C564.5625,168.1563 563.875,168.2813 563.1094,168.2813 C561.0625,168.2813 559.7656,167.1875 559.7656,165.4844 L559.7656,164.3906 C559.7656,162.6094 561.0156,161.2969 562.75,161.2969 C563.3281,161.2969 563.9375,161.4531 564.4063,161.7031 C564.8906,161.9844 565.0625,162.2031 565.1563,162.6094 C565.2188,163.0156 565.25,163.1406 565.3906,163.2656 C565.5313,163.4063 565.7656,163.5156 565.9844,163.5156 C566.25,163.5156 566.5156,163.375 566.6875,163.1563 C566.7969,163 566.8281,162.8125 566.8281,162.3906 L566.8281,160.9688 C566.8281,160.5313 566.8125,160.4063 566.7188,160.25 C566.5625,159.9844 566.2813,159.8438 565.9844,159.8438 C565.6875,159.8438 565.4844,159.9375 565.2656,160.25 L565.0938,160.1719 Z " fill="#000000"/><text fill="#000000" font-family="sans-serif" font-size="14" lengthAdjust="spacing" textLength="42" x="583.25" y="169.3467">Media</text><line style="stroke:#181818;stroke-width:0.5;" x1="504" x2="672" y1="180.5" y2="180.5"/><line style="stroke:#181818;stroke-width:0.5;" x1="504" x2="672" y1="188.5" y2="188.5"/><text fill="#000000" font-family="sans-serif" font-size="14" lengthAdjust="spacing" textLength="158" x="509" y="205.4951">calcular(data, col) : int</text></g><!--class Mediana--><g id="elem_Mediana"><rect codeLine="24" fill="#F1F1F1" height="64.2969" id="Mediana" rx="2.5" ry="2.5" style="stroke:#181818;stroke-width:0.5;" width="170" x="708" y="148.5"/><ellipse cx="759.25" cy="164.5" fill="#ADD1B2" rx="11" ry="11" style="stroke:#181818;stroke-width:1.0;"/><path d="M761.5938,160.1719 C760.6563,159.7344 760.0625,159.5938 759.1875,159.5938 C756.5625,159.5938 754.5625,161.6719 754.5625,164.3906 L754.5625,165.5156 C754.5625,168.0938 756.6719,169.9844 759.5625,169.9844 C760.7813,169.9844 761.9375,169.6875 762.6875,169.1406 C763.2656,168.7344 763.5938,168.2813 763.5938,167.8906 C763.5938,167.4375 763.2031,167.0469 762.7344,167.0469 C762.5156,167.0469 762.3125,167.125 762.125,167.3125 C761.6719,167.7969 761.6719,167.7969 761.4844,167.8906 C761.0625,168.1563 760.375,168.2813 759.6094,168.2813 C757.5625,168.2813 756.2656,167.1875 756.2656,165.4844 L756.2656,164.3906 C756.2656,162.6094 757.5156,161.2969 759.25,161.2969 C759.8281,161.2969 760.4375,161.4531 760.9063,161.7031 C761.3906,161.9844 761.5625,162.2031 761.6563,162.6094 C761.7188,163.0156 761.75,163.1406 761.8906,163.2656 C762.0313,163.4063 762.2656,163.5156 762.4844,163.5156 C762.75,163.5156 763.0156,163.375 763.1875,163.1563 C763.2969,163 763.3281,162.8125 763.3281,162.3906 L763.3281,160.9688 C763.3281,160.5313 763.3125,160.4063 763.2188,160.25 C763.0625,159.9844 762.7813,159.8438 762.4844,159.8438 C762.1875,159.8438 761.9844,159.9375 761.7656,160.25 L761.5938,160.1719 Z " fill="#000000"/><text fill="#000000" font-family="sans-serif" font-size="14" lengthAdjust="spacing" textLength="59" x="779.75" y="169.3467">Mediana</text><line style="stroke:#181818;stroke-width:0.5;" x1="709" x2="877" y1="180.5" y2="180.5"/><line style="stroke:#181818;stroke-width:0.5;" x1="709" x2="877" y1="188.5" y2="188.5"/><text fill="#000000" font-family="sans-serif" font-size="14" lengthAdjust="spacing" textLength="158" x="714" y="205.4951">calcular(data, col) : int</text></g><!--link AnalisisFactory to AbstractFactory--><g id="link_AnalisisFactory_AbstractFactory"><path codeLine="10" d="M425.913,55.084 C402.793,64.237 376.09,74.958 352,85 C316.159,99.941 293.7043,109.5246 258.8243,124.7586 " fill="none" id="AnalisisFactory-to-AbstractFactory" style="stroke:#181818;stroke-width:1.0;"/><polygon fill="none" points="242.329,131.963,261.2258,130.257,256.4229,119.2601,242.329,131.963" style="stroke:#181818;stroke-width:1.0;"/><text fill="#000000" font-family="sans-serif" font-size="13" lengthAdjust="spacing" textLength="76" x="353" y="98.0669">implements</text></g><!--link Moda to AbstractAnalisis--><g id="link_Moda_AbstractAnalisis"><path codeLine="28" d="M423.992,212.594 C459.746,239.715 497.005,267.9767 532.738,295.0817 " fill="none" id="Moda-to-AbstractAnalisis" style="stroke:#181818;stroke-width:1.0;"/><polygon fill="none" points="547.079,305.9599,536.3641,290.3013,529.1119,299.862,547.079,305.9599" style="stroke:#181818;stroke-width:1.0;"/><text fill="#000000" font-family="sans-serif" font-size="13" lengthAdjust="spacing" textLength="52" x="505" y="272.0669">extends</text></g><!--link Media to AbstractAnalisis--><g id="link_Media_AbstractAnalisis"><path codeLine="29" d="M588,212.594 C588,239.715 588,260.8549 588,287.9599 " fill="none" id="Media-to-AbstractAnalisis" style="stroke:#181818;stroke-width:1.0;"/><polygon fill="none" points="588,305.9599,594,287.9599,582,287.9599,588,305.9599" style="stroke:#181818;stroke-width:1.0;"/><text fill="#000000" font-family="sans-serif" font-size="13" lengthAdjust="spacing" textLength="52" x="589" y="272.0669">extends</text></g><!--link Mediana to AbstractAnalisis--><g id="link_Mediana_AbstractAnalisis"><path codeLine="30" d="M752.008,212.594 C716.254,239.715 678.995,267.9767 643.262,295.0817 " fill="none" id="Mediana-to-AbstractAnalisis" style="stroke:#181818;stroke-width:1.0;"/><polygon fill="none" points="628.921,305.9599,646.8881,299.862,639.6359,290.3013,628.921,305.9599" style="stroke:#181818;stroke-width:1.0;"/><text fill="#000000" font-family="sans-serif" font-size="13" lengthAdjust="spacing" textLength="52" x="692" y="272.0669">extends</text></g><!--link AnalisisFactory to Moda--><g id="link_AnalisisFactory_Moda"><path codeLine="32" d="M469.062,55.047 C451.693,80.164 427.2197,115.5551 407.9197,143.4641 " fill="none" id="AnalisisFactory-to-Moda" style="stroke:#181818;stroke-width:1.0;stroke-dasharray:7.0,7.0;"/><polygon fill="#181818" points="404.507,148.399,412.916,143.2717,407.3509,144.2865,406.3361,138.7215,404.507,148.399" style="stroke:#181818;stroke-width:1.0;"/><polygon fill="#000000" points="449.1561,97.6789,456.718,91.9109,451.8835,88.5678,449.1561,97.6789" style="stroke:#000000;stroke-width:1.0;"/><text fill="#000000" font-family="sans-serif" font-size="13" lengthAdjust="spacing" textLength="48" x="461" y="98.0669">creates</text></g><!--link AnalisisFactory to Media--><g id="link_AnalisisFactory_Media"><path codeLine="33" d="M501.094,55.047 C518.633,80.164 543.3578,115.5707 562.8468,143.4797 " fill="none" id="AnalisisFactory-to-Media" style="stroke:#181818;stroke-width:1.0;stroke-dasharray:7.0,7.0;"/><polygon fill="#181818" points="566.282,148.399,564.4088,138.7299,563.4194,144.2996,557.8497,143.3102,566.282,148.399" style="stroke:#181818;stroke-width:1.0;"/><polygon fill="#000000" points="541.8626,97.6658,539.0937,88.5673,534.2745,91.9325,541.8626,97.6658" style="stroke:#000000;stroke-width:1.0;"/><text fill="#000000" font-family="sans-serif" font-size="13" lengthAdjust="spacing" textLength="48" x="548" y="98.0669">creates</text></g><!--link AnalisisFactory to Mediana--><g id="link_AnalisisFactory_Mediana"><path codeLine="34" d="M538.723,55.046 C559.528,64.149 583.476,74.845 605,85 C648.114,105.342 690.7854,126.7663 727.4984,145.5653 " fill="none" id="AnalisisFactory-to-Mediana" style="stroke:#181818;stroke-width:1.0;stroke-dasharray:7.0,7.0;"/><polygon fill="#181818" points="732.839,148.3,726.6513,140.6376,728.3885,146.0211,723.005,147.7584,732.839,148.3" style="stroke:#181818;stroke-width:1.0;"/><polygon fill="#000000" points="646.5085,95.7283,639.6233,89.1674,637.0819,94.4674,646.5085,95.7283" style="stroke:#000000;stroke-width:1.0;"/><text fill="#000000" font-family="sans-serif" font-size="13" lengthAdjust="spacing" textLength="48" x="651" y="98.0669">creates</text></g><!--SRC=[bP513e8m44NtFSKiDH4Eq0K96tUUmOnj5qtAO3erqIXt5qk5812XIHUTlfd-_uiN3XvL0EMG6SfqFBQxzWzu2cZN4rEv0UKD-dDLQzpjGVPyIUWiMrx0ZRQRULheQ8H8MbDbqDfU_HQpx5LCN4cmrTMPob1W8N0-Wk-acGpGgPj37_LP2eEaKvjBudj8Oy03gDfDwO_DZJYjQeWwHjPxDnBCFHZIBBhdLr7qdviad-T5buUClneCGp4FHHshA1fnRm00]--></g></svg>