<?xml version="1.0" encoding="us-ascii" standalone="no"?><svg xmlns="http://www.w3.org/2000/svg" xmlns:xlink="http://www.w3.org/1999/xlink" contentStyleType="text/css" height="464px" preserveAspectRatio="none" style="width:913px;height:464px;background:#FFFFFF;" version="1.1" viewBox="0 0 913 464" width="913px" zoomAndPan="magnify"><defs/><g><!--class Builder--><g id="elem_Builder"><rect codeLine="1" fill="#F1F1F1" height="178.375" id="Builder" rx="2.5" ry="2.5" style="stroke:#181818;stroke-width:0.5;" width="175" x="273" y="279"/><ellipse cx="330.75" cy="295" fill="#A9DCDF" rx="11" ry="11" style="stroke:#181818;stroke-width:1.0;"/><path d="M332.8281,296.8125 L333.2188,297.7969 L332.8281,297.7969 C332.375,297.7969 332.2656,297.8125 332.1094,297.9219 C331.8594,298.0781 331.7031,298.3594 331.7031,298.6563 C331.7031,298.9219 331.8438,299.1719 332.0625,299.3281 C332.2031,299.4531 332.4063,299.5 332.8281,299.5 L335.1875,299.5 C335.5469,299.5 335.7656,299.4688 335.9063,299.375 C336.1563,299.2344 336.3125,298.9375 336.3125,298.6563 C336.3125,298.375 336.1719,298.125 335.9531,297.9688 C335.7813,297.8281 335.625,297.7969 335.1563,297.7969 L331.7656,289.5938 L328.0938,289.5938 C327.6406,289.5938 327.5156,289.6094 327.3594,289.7031 C327.1094,289.875 326.9531,290.1563 326.9531,290.4375 C326.9531,290.7188 327.0938,290.9688 327.3125,291.1406 C327.4844,291.25 327.6563,291.2813 328.0938,291.2813 L329.1719,291.2813 L326.5313,297.7969 C326.1094,297.7969 325.9531,297.8125 325.7969,297.9219 C325.5469,298.0781 325.3906,298.3594 325.3906,298.6563 C325.3906,299.2188 325.7656,299.5 326.5156,299.5 L328.7813,299.5 C329.1406,299.5 329.3594,299.4688 329.4844,299.375 C329.75,299.2344 329.8906,298.9375 329.8906,298.6563 C329.8906,298.375 329.7656,298.125 329.5469,297.9531 C329.375,297.8281 329.2344,297.7969 328.7813,297.7969 L328.3906,297.7969 L328.7813,296.8125 L332.8281,296.8125 Z M332.125,295.1094 L329.4531,295.1094 L330.7969,291.8438 L332.125,295.1094 Z " fill="#000000"/><text fill="#000000" font-family="sans-serif" font-size="14" font-style="italic" lengthAdjust="spacing" textLength="51" x="351.25" y="299.8467">Builder</text><line style="stroke:#181818;stroke-width:0.5;" x1="274" x2="447" y1="311" y2="311"/><line style="stroke:#181818;stroke-width:0.5;" x1="274" x2="447" y1="319" y2="319"/><ellipse cx="284" cy="332.6484" fill="#84BE84" rx="3" ry="3" style="stroke:#038048;stroke-width:1.0;"/><text fill="#000000" font-family="sans-serif" font-size="14" font-style="italic" lengthAdjust="spacing" textLength="92" x="293" y="335.9951">pizza(): None</text><ellipse cx="284" cy="348.9453" fill="#84BE84" rx="3" ry="3" style="stroke:#038048;stroke-width:1.0;"/><text fill="#000000" font-family="sans-serif" font-size="14" font-style="italic" lengthAdjust="spacing" textLength="95" x="293" y="352.292">masa(): None</text><ellipse cx="284" cy="365.2422" fill="#84BE84" rx="3" ry="3" style="stroke:#038048;stroke-width:1.0;"/><text fill="#000000" font-family="sans-serif" font-size="14" font-style="italic" lengthAdjust="spacing" textLength="90" x="293" y="368.5889">base(): None</text><ellipse cx="284" cy="381.5391" fill="#84BE84" rx="3" ry="3" style="stroke:#038048;stroke-width:1.0;"/><text fill="#000000" font-family="sans-serif" font-size="14" font-style="italic" lengthAdjust="spacing" textLength="145" x="293" y="384.8857">ingredientes(): None</text><ellipse cx="284" cy="397.8359" fill="#84BE84" rx="3" ry="3" style="stroke:#038048;stroke-width:1.0;"/><text fill="#000000" font-family="sans-serif" font-size="14" font-style="italic" lengthAdjust="spacing" textLength="111" x="293" y="401.1826">coccion(): None</text><ellipse cx="284" cy="414.1328" fill="#84BE84" rx="3" ry="3" style="stroke:#038048;stroke-width:1.0;"/><text fill="#000000" font-family="sans-serif" font-size="14" font-style="italic" lengthAdjust="spacing" textLength="149" x="293" y="417.4795">presentacion(): None</text><ellipse cx="284" cy="430.4297" fill="#84BE84" rx="3" ry="3" style="stroke:#038048;stroke-width:1.0;"/><text fill="#000000" font-family="sans-serif" font-size="14" font-style="italic" lengthAdjust="spacing" textLength="127" x="293" y="433.7764">maridajes(): None</text><ellipse cx="284" cy="446.7266" fill="#84BE84" rx="3" ry="3" style="stroke:#038048;stroke-width:1.0;"/><text fill="#000000" font-family="sans-serif" font-size="14" font-style="italic" lengthAdjust="spacing" textLength="100" x="293" y="450.0732">extras(): None</text></g><!--class PizzaBuilder--><g id="elem_PizzaBuilder"><rect codeLine="12" fill="#F1F1F1" height="194.6719" id="PizzaBuilder" rx="2.5" ry="2.5" style="stroke:#181818;stroke-width:0.5;" width="375" x="7" y="7"/><ellipse cx="146.75" cy="23" fill="#ADD1B2" rx="11" ry="11" style="stroke:#181818;stroke-width:1.0;"/><path d="M149.0938,18.6719 C148.1563,18.2344 147.5625,18.0938 146.6875,18.0938 C144.0625,18.0938 142.0625,20.1719 142.0625,22.8906 L142.0625,24.0156 C142.0625,26.5938 144.1719,28.4844 147.0625,28.4844 C148.2813,28.4844 149.4375,28.1875 150.1875,27.6406 C150.7656,27.2344 151.0938,26.7813 151.0938,26.3906 C151.0938,25.9375 150.7031,25.5469 150.2344,25.5469 C150.0156,25.5469 149.8125,25.625 149.625,25.8125 C149.1719,26.2969 149.1719,26.2969 148.9844,26.3906 C148.5625,26.6563 147.875,26.7813 147.1094,26.7813 C145.0625,26.7813 143.7656,25.6875 143.7656,23.9844 L143.7656,22.8906 C143.7656,21.1094 145.0156,19.7969 146.75,19.7969 C147.3281,19.7969 147.9375,19.9531 148.4063,20.2031 C148.8906,20.4844 149.0625,20.7031 149.1563,21.1094 C149.2188,21.5156 149.25,21.6406 149.3906,21.7656 C149.5313,21.9063 149.7656,22.0156 149.9844,22.0156 C150.25,22.0156 150.5156,21.875 150.6875,21.6563 C150.7969,21.5 150.8281,21.3125 150.8281,20.8906 L150.8281,19.4688 C150.8281,19.0313 150.8125,18.9063 150.7188,18.75 C150.5625,18.4844 150.2813,18.3438 149.9844,18.3438 C149.6875,18.3438 149.4844,18.4375 149.2656,18.75 L149.0938,18.6719 Z " fill="#000000"/><text fill="#000000" font-family="sans-serif" font-size="14" lengthAdjust="spacing" textLength="87" x="167.25" y="27.8467">PizzaBuilder</text><line style="stroke:#181818;stroke-width:0.5;" x1="8" x2="381" y1="39" y2="39"/><rect fill="none" height="6" style="stroke:#C82930;stroke-width:1.0;" width="6" x="15" y="49.6484"/><text fill="#000000" font-family="sans-serif" font-size="14" lengthAdjust="spacing" textLength="91" x="27" y="55.9951">_pizza: Pizza</text><line style="stroke:#181818;stroke-width:0.5;" x1="8" x2="381" y1="63.2969" y2="63.2969"/><ellipse cx="18" cy="76.9453" fill="#84BE84" rx="3" ry="3" style="stroke:#038048;stroke-width:1.0;"/><text fill="#000000" font-family="sans-serif" font-size="14" lengthAdjust="spacing" textLength="94" x="27" y="80.292">pizza(): Pizza</text><ellipse cx="18" cy="93.2422" fill="#84BE84" rx="3" ry="3" style="stroke:#038048;stroke-width:1.0;"/><text fill="#000000" font-family="sans-serif" font-size="14" lengthAdjust="spacing" textLength="174" x="27" y="96.5889">masa(masa: Masa): None</text><ellipse cx="18" cy="109.5391" fill="#84BE84" rx="3" ry="3" style="stroke:#038048;stroke-width:1.0;"/><text fill="#000000" font-family="sans-serif" font-size="14" lengthAdjust="spacing" textLength="167" x="27" y="112.8857">base(base: Base): None</text><ellipse cx="18" cy="125.8359" fill="#84BE84" rx="3" ry="3" style="stroke:#038048;stroke-width:1.0;"/><text fill="#000000" font-family="sans-serif" font-size="14" lengthAdjust="spacing" textLength="338" x="27" y="129.1826">ingredientes(ingredientes: Ingredientes): None</text><ellipse cx="18" cy="142.1328" fill="#84BE84" rx="3" ry="3" style="stroke:#038048;stroke-width:1.0;"/><text fill="#000000" font-family="sans-serif" font-size="14" lengthAdjust="spacing" textLength="232" x="27" y="145.4795">coccion(coccion: Coccion): None</text><ellipse cx="18" cy="158.4297" fill="#84BE84" rx="3" ry="3" style="stroke:#038048;stroke-width:1.0;"/><text fill="#000000" font-family="sans-serif" font-size="14" lengthAdjust="spacing" textLength="349" x="27" y="161.7764">presentacion(presentacion: Presentacion): None</text><ellipse cx="18" cy="174.7266" fill="#84BE84" rx="3" ry="3" style="stroke:#038048;stroke-width:1.0;"/><text fill="#000000" font-family="sans-serif" font-size="14" lengthAdjust="spacing" textLength="270" x="27" y="178.0732">maridajes(maridajes: Maridajes): None</text><ellipse cx="18" cy="191.0234" fill="#84BE84" rx="3" ry="3" style="stroke:#038048;stroke-width:1.0;"/><text fill="#000000" font-family="sans-serif" font-size="14" lengthAdjust="spacing" textLength="200" x="27" y="194.3701">extras(extras: Extras): None</text></g><!--class Pizza--><g id="elem_Pizza"><rect codeLine="24" fill="#F1F1F1" height="113.1875" id="Pizza" rx="2.5" ry="2.5" style="stroke:#181818;stroke-width:0.5;" width="234" x="672.5" y="48"/><ellipse cx="766.75" cy="64" fill="#ADD1B2" rx="11" ry="11" style="stroke:#181818;stroke-width:1.0;"/><path d="M769.0938,59.6719 C768.1563,59.2344 767.5625,59.0938 766.6875,59.0938 C764.0625,59.0938 762.0625,61.1719 762.0625,63.8906 L762.0625,65.0156 C762.0625,67.5938 764.1719,69.4844 767.0625,69.4844 C768.2813,69.4844 769.4375,69.1875 770.1875,68.6406 C770.7656,68.2344 771.0938,67.7813 771.0938,67.3906 C771.0938,66.9375 770.7031,66.5469 770.2344,66.5469 C770.0156,66.5469 769.8125,66.625 769.625,66.8125 C769.1719,67.2969 769.1719,67.2969 768.9844,67.3906 C768.5625,67.6563 767.875,67.7813 767.1094,67.7813 C765.0625,67.7813 763.7656,66.6875 763.7656,64.9844 L763.7656,63.8906 C763.7656,62.1094 765.0156,60.7969 766.75,60.7969 C767.3281,60.7969 767.9375,60.9531 768.4063,61.2031 C768.8906,61.4844 769.0625,61.7031 769.1563,62.1094 C769.2188,62.5156 769.25,62.6406 769.3906,62.7656 C769.5313,62.9063 769.7656,63.0156 769.9844,63.0156 C770.25,63.0156 770.5156,62.875 770.6875,62.6563 C770.7969,62.5 770.8281,62.3125 770.8281,61.8906 L770.8281,60.4688 C770.8281,60.0313 770.8125,59.9063 770.7188,59.75 C770.5625,59.4844 770.2813,59.3438 769.9844,59.3438 C769.6875,59.3438 769.4844,59.4375 769.2656,59.75 L769.0938,59.6719 Z " fill="#000000"/><text fill="#000000" font-family="sans-serif" font-size="14" lengthAdjust="spacing" textLength="37" x="787.25" y="68.8467">Pizza</text><line style="stroke:#181818;stroke-width:0.5;" x1="673.5" x2="905.5" y1="80" y2="80"/><rect fill="none" height="6" style="stroke:#C82930;stroke-width:1.0;" width="6" x="680.5" y="90.6484"/><text fill="#000000" font-family="sans-serif" font-size="14" lengthAdjust="spacing" textLength="69" x="692.5" y="96.9951">parts: list</text><line style="stroke:#181818;stroke-width:0.5;" x1="673.5" x2="905.5" y1="104.2969" y2="104.2969"/><ellipse cx="683.5" cy="117.9453" fill="#84BE84" rx="3" ry="3" style="stroke:#038048;stroke-width:1.0;"/><text fill="#000000" font-family="sans-serif" font-size="14" lengthAdjust="spacing" textLength="149" x="692.5" y="121.292">add(part: Any): None</text><ellipse cx="683.5" cy="134.2422" fill="#84BE84" rx="3" ry="3" style="stroke:#038048;stroke-width:1.0;"/><text fill="#000000" font-family="sans-serif" font-size="14" lengthAdjust="spacing" textLength="123" x="692.5" y="137.5889">list_parts(): None</text><ellipse cx="683.5" cy="150.5391" fill="#84BE84" rx="3" ry="3" style="stroke:#038048;stroke-width:1.0;"/><text fill="#000000" font-family="sans-serif" font-size="14" lengthAdjust="spacing" textLength="208" x="692.5" y="153.8857">guardar_ingredientes(): None</text></g><!--class Pizzeria--><g id="elem_Pizzeria"><rect codeLine="31" fill="#F1F1F1" height="178.375" id="Pizzeria" rx="2.5" ry="2.5" style="stroke:#181818;stroke-width:0.5;" width="220" x="417.5" y="15.5"/><ellipse cx="495.25" cy="31.5" fill="#ADD1B2" rx="11" ry="11" style="stroke:#181818;stroke-width:1.0;"/><path d="M497.5938,27.1719 C496.6563,26.7344 496.0625,26.5938 495.1875,26.5938 C492.5625,26.5938 490.5625,28.6719 490.5625,31.3906 L490.5625,32.5156 C490.5625,35.0938 492.6719,36.9844 495.5625,36.9844 C496.7813,36.9844 497.9375,36.6875 498.6875,36.1406 C499.2656,35.7344 499.5938,35.2813 499.5938,34.8906 C499.5938,34.4375 499.2031,34.0469 498.7344,34.0469 C498.5156,34.0469 498.3125,34.125 498.125,34.3125 C497.6719,34.7969 497.6719,34.7969 497.4844,34.8906 C497.0625,35.1563 496.375,35.2813 495.6094,35.2813 C493.5625,35.2813 492.2656,34.1875 492.2656,32.4844 L492.2656,31.3906 C492.2656,29.6094 493.5156,28.2969 495.25,28.2969 C495.8281,28.2969 496.4375,28.4531 496.9063,28.7031 C497.3906,28.9844 497.5625,29.2031 497.6563,29.6094 C497.7188,30.0156 497.75,30.1406 497.8906,30.2656 C498.0313,30.4063 498.2656,30.5156 498.4844,30.5156 C498.75,30.5156 499.0156,30.375 499.1875,30.1563 C499.2969,30 499.3281,29.8125 499.3281,29.3906 L499.3281,27.9688 C499.3281,27.5313 499.3125,27.4063 499.2188,27.25 C499.0625,26.9844 498.7813,26.8438 498.4844,26.8438 C498.1875,26.8438 497.9844,26.9375 497.7656,27.25 L497.5938,27.1719 Z " fill="#000000"/><text fill="#000000" font-family="sans-serif" font-size="14" lengthAdjust="spacing" textLength="56" x="515.75" y="36.3467">Pizzeria</text><line style="stroke:#181818;stroke-width:0.5;" x1="418.5" x2="636.5" y1="47.5" y2="47.5"/><rect fill="none" height="6" style="stroke:#C82930;stroke-width:1.0;" width="6" x="425.5" y="58.1484"/><text fill="#000000" font-family="sans-serif" font-size="14" lengthAdjust="spacing" textLength="116" x="437.5" y="64.4951">_builder: Builder</text><ellipse cx="428.5" cy="77.4453" fill="none" rx="3" ry="3" style="stroke:#038048;stroke-width:1.0;"/><text fill="#000000" font-family="sans-serif" font-size="14" lengthAdjust="spacing" textLength="109" x="437.5" y="80.792">builder: Builder</text><line style="stroke:#181818;stroke-width:0.5;" x1="418.5" x2="636.5" y1="88.0938" y2="88.0938"/><ellipse cx="428.5" cy="101.7422" fill="#84BE84" rx="3" ry="3" style="stroke:#038048;stroke-width:1.0;"/><text fill="#000000" font-family="sans-serif" font-size="14" lengthAdjust="spacing" textLength="177" x="437.5" y="105.0889">pizza_pepperoni(): None</text><ellipse cx="428.5" cy="118.0391" fill="#84BE84" rx="3" ry="3" style="stroke:#038048;stroke-width:1.0;"/><text fill="#000000" font-family="sans-serif" font-size="14" lengthAdjust="spacing" textLength="194" x="437.5" y="121.3857">pizza_jamon_queso(): None</text><ellipse cx="428.5" cy="134.3359" fill="#84BE84" rx="3" ry="3" style="stroke:#038048;stroke-width:1.0;"/><text fill="#000000" font-family="sans-serif" font-size="14" lengthAdjust="spacing" textLength="166" x="437.5" y="137.6826">pizza_hawaiana(): None</text><ellipse cx="428.5" cy="150.6328" fill="#84BE84" rx="3" ry="3" style="stroke:#038048;stroke-width:1.0;"/><text fill="#000000" font-family="sans-serif" font-size="14" lengthAdjust="spacing" textLength="152" x="437.5" y="153.9795">pizza_vegana(): None</text><ellipse cx="428.5" cy="166.9297" fill="#84BE84" rx="3" ry="3" style="stroke:#038048;stroke-width:1.0;"/><text fill="#000000" font-family="sans-serif" font-size="14" lengthAdjust="spacing" textLength="160" x="437.5" y="170.2764">pizza_especial(): None</text><ellipse cx="428.5" cy="183.2266" fill="#84BE84" rx="3" ry="3" style="stroke:#038048;stroke-width:1.0;"/><text fill="#000000" font-family="sans-serif" font-size="14" lengthAdjust="spacing" textLength="155" x="437.5" y="186.5732">personalizada(): None</text></g><!--link PizzaBuilder to Builder--><g id="link_PizzaBuilder_Builder"><path codeLine="42" d="M255.841,202.13 C271.819,227.3 279.3013,239.0873 294.9793,263.7853 " fill="none" id="PizzaBuilder-to-Builder" style="stroke:#181818;stroke-width:1.0;"/><polygon fill="none" points="304.626,278.982,300.0449,260.5697,289.9137,267.0008,304.626,278.982" style="stroke:#181818;stroke-width:1.0;"/><text fill="#000000" font-family="sans-serif" font-size="13" lengthAdjust="spacing" textLength="76" x="283.5" y="245.0669">implements</text></g><!--reverse link Pizzeria to Builder--><g id="link_Pizzeria_Builder"><path codeLine="43" d="M464.7353,203.7806 C447.2173,231.2116 434.366,251.336 416.845,278.771 " fill="none" id="Pizzeria-backto-Builder" style="stroke:#181818;stroke-width:1.0;"/><polygon fill="none" points="471.194,193.667,464.5934,196.5709,464.7353,203.7806,471.3358,200.8767,471.194,193.667" style="stroke:#181818;stroke-width:1.0;"/><text fill="#000000" font-family="sans-serif" font-size="13" lengthAdjust="spacing" textLength="50" x="445.5" y="245.0669">_builder</text></g><!--SRC=[VPFDReCm3CVlF8MFdIfU88T9wxJ33fls1iWb5ai5IPhGVT3rtPSG2cQ5NPpOVxkkVmwuzwt3ieMoHkzXTrAr90Vd3E2CWtQ1hLLTXvix0Qz6qn-jGRycxT7JYgHqvKWgqYtvbPJIbAKoUaMrZdoendzI6dHAuc6r0Ns5soHUiYnHU8lJSXHvqGCGIGc12SWOwJ548-0bsAbZeX2DW5smJ9b1u8w0P-QnYYkJuHJmc2uiPGQ6E-7FCezLJ9p6MnnYkBB40LWw13prvpA-nCsYQqDYhNmRwr7AJGm9UD3Vx7UZNlIvR5FRweHEeYiMdygi6parD2psQMtY-fJx1Ip4-WKMbgmbPxJYVPDqmCReudWYRsx5T_n4XHflbG-g5kFaBPKAwvb2pXkDjUfG8fzizW3p_ET-_305gCRMr0GOFXj7DtdECguCVW40]--></g></svg>